<svg version="1.1" id="Layer_1" xmlns="http://www.w3.org/2000/svg" xmlns:xlink="http://www.w3.org/1999/xlink" x="0px" y="0px"
	 width="100%" viewBox="0 0 1557 466" enable-background="new 0 0 1557 466" xml:space="preserve">
<path fill="#FFFFFE" opacity="1.000000" stroke="none" 
	d="
M1042.000000,467.000000 
	C694.709473,467.000000 347.919006,467.000000 1.064251,467.000000 
	C1.064251,311.728699 1.064251,156.457382 1.064251,1.093027 
	C520.000000,1.093027 1039.000000,1.093027 1557.968018,1.093027 
	C1557.968018,156.414398 1557.968018,311.707214 1557.968018,467.000000 
	C1386.123901,467.000000 1214.312012,467.000000 1042.000000,467.000000 
M1005.107605,344.179382 
	C1004.410706,338.829681 1003.847839,338.523529 997.883545,340.420990 
	C998.055481,341.191223 998.474426,342.018311 998.365295,342.768524 
	C997.983643,345.390472 997.419617,347.985809 996.924866,350.591248 
	C994.508606,349.945953 992.053223,349.418030 989.684814,348.629181 
	C985.635681,347.280609 981.746521,345.192719 977.603638,344.433441 
	C965.300781,342.178650 953.252747,347.215118 948.521973,356.056915 
	C937.676514,376.327393 950.497559,397.017242 973.472290,396.320221 
	C992.458862,395.744171 1002.858276,382.705048 999.252686,363.984375 
	C998.917114,362.242401 998.520508,360.512177 998.133911,358.690033 
	C1003.326843,357.367401 1005.397217,354.067719 1005.778198,349.497986 
	C1005.778198,364.555695 1005.778198,379.613373 1005.778198,394.749298 
	C1011.751526,394.749298 1016.790222,394.749298 1021.692017,394.749298 
	C1021.692017,378.074249 1021.692017,361.735413 1021.692017,344.994934 
	C1015.870300,344.994934 1010.435852,344.994934 1005.107605,344.179382 
M105.981895,205.482330 
	C103.791618,206.996399 101.353836,208.261230 99.494019,210.108078 
	C98.150223,211.442490 96.775597,213.548584 96.771729,215.313507 
	C96.636337,277.129028 96.587563,338.945068 96.716873,400.760651 
	C96.749664,416.435089 107.681816,426.829590 123.403397,426.836517 
	C154.394638,426.850220 185.385864,426.840698 216.377106,426.840759 
	C218.127396,426.840759 219.877686,426.840759 222.159943,426.840759 
	C222.159943,372.504272 222.159943,318.959808 222.159943,265.403076 
	C249.962524,265.403076 277.224182,265.403076 305.157532,265.403076 
	C305.157532,319.312073 305.157532,372.984497 305.157532,426.840759 
	C336.478485,426.840759 367.126770,426.848022 397.775085,426.837860 
	C414.224670,426.832397 425.030884,416.127441 425.040039,399.663452 
	C425.074097,338.514069 425.024811,277.364655 425.136444,216.215485 
	C425.142426,212.946136 424.019745,211.158401 421.427216,209.369110 
	C369.502716,173.532471 317.609741,137.649780 265.832703,101.600723 
	C262.118927,99.015030 259.794312,98.786278 255.942596,101.471718 
	C206.237854,136.126053 156.384384,170.567062 105.981895,205.482330 
M1247.595459,177.903778 
	C1255.881104,193.830551 1264.129395,209.777054 1272.517700,225.649597 
	C1273.251343,227.038010 1274.889038,228.902802 1276.132202,228.922241 
	C1290.759155,229.150787 1305.390991,229.069016 1320.161377,229.069016 
	C1320.161377,174.275665 1320.161377,119.915016 1320.161377,65.690704 
	C1306.991333,65.690704 1294.249023,65.690704 1280.880859,65.690704 
	C1280.880859,102.538155 1280.880859,138.966904 1280.880859,175.395660 
	C1274.114746,163.974564 1268.097534,152.504822 1262.122803,141.013062 
	C1249.700806,117.120384 1237.246216,93.244225 1224.960205,69.281731 
	C1223.373291,66.186928 1221.522217,65.016014 1218.056396,65.186302 
	C1212.072510,65.480316 1206.063599,65.267799 1200.065186,65.267799 
	C1192.444946,65.267799 1184.824707,65.267799 1176.973267,65.267799 
	C1176.973267,120.094475 1176.973267,174.325439 1176.973267,228.631744 
	C1190.080078,228.631744 1202.929199,228.631744 1216.289551,228.631744 
	C1216.289551,191.756027 1216.289551,155.320465 1216.289551,117.557594 
	C1227.034180,138.304459 1237.123657,157.786240 1247.595459,177.903778 
M1504.730469,122.500053 
	C1504.730469,103.578133 1504.730469,84.656212 1504.730469,65.769524 
	C1490.452148,65.769524 1476.935425,65.769524 1462.983154,65.769524 
	C1462.983154,86.685219 1462.983154,107.104637 1462.983154,127.515823 
	C1442.499878,127.515823 1422.468018,127.515823 1402.045654,127.515823 
	C1402.045654,106.672470 1402.045654,86.237839 1402.045654,65.542725 
	C1388.246826,65.542725 1374.843994,65.542725 1361.309082,65.542725 
	C1361.309082,120.165146 1361.309082,174.513397 1361.309082,228.709076 
	C1375.101807,228.709076 1388.510498,228.709076 1402.413818,228.709076 
	C1402.413818,205.612183 1402.413818,182.875244 1402.413818,160.126526 
	C1422.843384,160.126526 1442.767822,160.126526 1463.197021,160.126526 
	C1463.197021,183.136261 1463.197021,205.870499 1463.197021,228.721375 
	C1477.248779,228.721375 1490.791138,228.721375 1504.730347,228.721375 
	C1504.730347,193.414566 1504.730347,158.457306 1504.730469,122.500053 
M375.498810,61.154179 
	C365.667786,61.155331 355.836212,61.092537 346.005981,61.180054 
	C339.417114,61.238708 334.496979,64.380135 333.198975,69.549690 
	C332.602051,71.926949 332.701233,74.507164 332.684265,76.996712 
	C332.628235,85.220428 332.663147,93.444756 332.663147,102.645081 
	C310.460602,87.366631 289.188599,72.810776 268.024048,58.100304 
	C263.365784,54.862545 258.706299,54.672794 254.501572,58.256649 
	C253.239120,59.332687 251.902832,60.333500 250.533478,61.271091 
	C181.999557,108.196098 113.457260,155.108932 44.919983,202.029068 
	C39.700756,205.602112 34.399273,209.069122 29.340912,212.858887 
	C24.704878,216.332230 23.959272,221.522842 27.017027,226.086884 
	C30.028811,230.582275 35.014313,231.477692 40.175495,228.410339 
	C41.318085,227.731293 42.386974,226.927719 43.485920,226.175827 
	C114.782799,177.395035 186.095718,128.637650 257.319916,79.750999 
	C260.402771,77.635025 262.281219,77.488228 265.451874,79.669777 
	C329.214691,123.541672 393.078674,167.266510 456.923706,211.018967 
	C465.299500,216.758835 473.652130,222.533371 482.075958,228.201981 
	C486.070404,230.889908 490.302185,231.072403 494.137177,228.013214 
	C497.661652,225.201691 498.609406,221.166290 496.678986,217.235443 
	C495.512512,214.860214 493.209900,212.787720 490.963806,211.236664 
	C463.022888,191.942139 435.028656,172.724106 406.950836,153.629471 
	C404.032593,151.644882 402.813538,149.645828 402.841797,146.017334 
	C403.025848,122.358154 402.973938,98.696762 402.916992,75.036293 
	C402.895081,65.931633 398.118042,61.256512 388.994598,61.162010 
	C384.829437,61.118874 380.663452,61.154388 375.498810,61.154179 
M834.935974,99.406921 
	C834.935913,92.408325 834.808655,85.406258 834.999451,78.412865 
	C835.073975,75.681419 834.249573,74.388275 831.632385,73.305786 
	C805.362122,62.439842 778.149597,59.512684 750.444458,65.192566 
	C724.088440,70.595848 704.378235,85.334213 693.889526,110.806183 
	C687.267639,126.887627 686.390198,143.719162 688.023315,160.852005 
	C691.140808,193.557678 712.203491,219.679092 743.937561,228.139755 
	C776.263000,236.758072 807.537537,231.901138 837.768311,218.398407 
	C840.378235,217.232635 840.911316,215.619858 840.901062,212.997940 
	C840.808594,189.336349 840.849731,165.674255 840.838318,142.012299 
	C840.837769,140.889267 840.712585,139.766296 840.635254,138.471863 
	C819.093140,138.471863 797.873962,138.471863 776.434204,138.471863 
	C776.434204,147.856964 776.434204,156.922058 776.434204,166.619644 
	C784.766357,166.619644 792.833618,166.619644 801.414001,166.619644 
	C801.414001,172.532013 801.413940,177.822830 801.413940,183.113647 
	C801.413940,200.239273 801.414001,200.239273 784.142273,201.678116 
	C760.387512,203.657013 741.343689,192.838303 734.127319,172.761581 
	C729.170532,158.971161 728.752502,144.710861 731.824585,130.444901 
	C735.916077,111.445305 747.105896,99.084320 766.414917,94.759529 
	C781.471558,91.387207 796.260803,93.256599 810.662781,97.976822 
	C818.783752,100.638451 826.540344,104.411736 834.935974,107.880501 
	C834.935974,105.246147 834.935974,102.807388 834.935974,99.406921 
M1113.246826,113.202126 
	C1107.826904,98.196274 1102.335693,83.215431 1097.052979,68.161469 
	C1096.106201,65.463654 1094.479126,65.226982 1092.133911,65.238037 
	C1078.301270,65.303215 1064.467407,65.356720 1050.636230,65.201576 
	C1047.653198,65.168114 1046.214478,66.101624 1045.219116,68.935791 
	C1040.329712,82.856308 1035.248779,96.709709 1030.211060,110.577896 
	C1019.215942,140.845459 1008.192749,171.102829 997.210022,201.374878 
	C993.943542,210.378479 990.772949,219.416870 987.335388,229.065231 
	C1001.045532,229.065231 1014.009216,229.138016 1026.968140,228.925720 
	C1027.994507,228.908920 1029.458008,227.084549 1029.920532,225.810593 
	C1032.636963,218.327072 1035.244629,210.797409 1037.608154,203.195969 
	C1038.475708,200.405655 1039.573975,199.168777 1042.761475,199.196518 
	C1061.759277,199.361908 1080.760010,199.352295 1099.758057,199.204056 
	C1102.839233,199.180008 1104.134644,200.315704 1105.009766,203.084702 
	C1107.415405,210.695816 1110.200195,218.188477 1112.537231,225.819183 
	C1113.326416,228.395935 1114.524536,229.194199 1117.104736,229.123840 
	C1123.099976,228.960373 1129.102905,229.071945 1135.102661,229.071976 
	C1141.651978,229.072021 1148.201172,229.072006 1155.354370,229.072006 
	C1141.218994,190.132156 1127.386475,152.026382 1113.246826,113.202126 
M948.937256,130.500000 
	C948.937256,119.567902 948.937256,108.635796 948.937256,97.126038 
	C966.961060,97.126038 984.338196,97.126038 1001.740356,97.126038 
	C1001.740356,86.276840 1001.740356,76.020332 1001.740356,65.649994 
	C952.433838,65.649994 903.393127,65.649994 854.347534,65.649994 
	C854.347534,76.305344 854.347534,86.573769 854.347534,97.348991 
	C872.045959,97.348991 889.467712,97.348991 907.409119,97.348991 
	C907.409119,141.438446 907.409119,185.020370 907.409119,228.732056 
	C921.490601,228.732056 935.039368,228.732056 948.937256,228.732056 
	C948.937256,196.093567 948.937256,163.796783 948.937256,130.500000 
M621.980774,98.894211 
	C623.519470,98.356819 625.054443,97.365601 626.597534,97.352722 
	C640.923340,97.233109 655.250610,97.281960 669.577454,97.281921 
	C671.319214,97.281914 673.060913,97.281921 674.785034,97.281921 
	C674.785034,86.239906 674.785034,75.989029 674.785034,65.724770 
	C625.479187,65.724770 576.465027,65.724770 527.489014,65.724770 
	C527.489014,76.445816 527.489014,86.703987 527.489014,97.509949 
	C545.222900,97.509949 562.623596,97.509949 580.544189,97.509949 
	C580.544189,141.630661 580.544189,185.198837 580.544189,228.655014 
	C594.634033,228.655014 608.187622,228.655014 621.658386,228.655014 
	C621.792603,227.912964 621.901917,227.590439 621.902039,227.267899 
	C621.920898,184.787354 621.931763,142.306808 621.980774,98.894211 
M575.664551,395.060242 
	C580.613220,395.060242 585.561829,395.060242 590.962158,395.060242 
	C590.962158,385.494049 590.962158,376.417999 590.962158,367.327240 
	C599.630859,367.327240 607.826904,367.327240 616.325378,367.327240 
	C616.325378,376.672119 616.325378,385.623444 616.325378,394.821747 
	C622.039429,394.821747 627.439453,394.821747 632.916870,394.821747 
	C632.916870,372.708405 632.916870,350.846527 632.916870,328.953613 
	C627.263245,328.953613 621.990417,328.953613 616.075928,328.953613 
	C616.075928,337.383728 616.075928,345.589966 616.075928,353.685364 
	C607.347778,353.685364 599.268188,353.685364 590.764099,353.685364 
	C590.764099,345.290283 590.764099,337.198730 590.764099,329.048340 
	C584.935913,329.048340 579.548828,329.048340 573.910645,329.048340 
	C573.910645,350.855042 573.906433,372.319489 573.943359,393.783875 
	C573.944092,394.176483 574.435303,394.568268 575.664551,395.060242 
M849.490906,414.924255 
	C850.821960,414.855225 852.155334,414.816071 853.483704,414.712616 
	C870.089661,413.419891 878.074341,404.897644 878.160034,388.278290 
	C878.215881,377.446899 878.170593,366.614960 878.170654,355.783264 
	C878.170654,352.351776 878.170654,348.920288 878.170654,345.411316 
	C872.560669,345.411316 867.633057,345.411316 862.501526,345.411316 
	C862.256592,347.604523 862.037354,349.567810 861.776184,351.906464 
	C849.406433,339.192413 831.823181,342.795380 826.368896,358.908203 
	C823.507507,367.361328 823.917847,376.020508 828.038696,384.162903 
	C832.502563,392.983368 842.454956,397.335754 851.639038,394.150360 
	C855.247742,392.898743 858.439819,390.445740 861.733337,388.589600 
	C862.922119,398.666260 858.702271,404.168854 848.531311,403.986938 
	C842.722595,403.883057 836.944153,402.088257 831.226807,401.068115 
	C830.466431,414.244751 828.879883,412.002380 841.616089,414.258484 
	C843.901245,414.663269 846.248718,414.716461 849.490906,414.924255 
M1315.422119,400.929993 
	C1306.213867,407.105194 1297.149414,403.752167 1287.829834,400.030609 
	C1287.829834,403.000916 1288.041138,405.508728 1287.778320,407.965851 
	C1287.419922,411.317749 1288.697021,412.863647 1292.045410,413.104218 
	C1298.312988,413.554504 1304.605591,414.880432 1310.822266,414.562195 
	C1324.099609,413.882477 1332.612793,406.999390 1334.613037,395.889648 
	C1335.341919,391.841370 1335.129517,387.603638 1335.148926,383.451447 
	C1335.207886,370.851074 1335.170288,358.250244 1335.170288,345.423645 
	C1329.597412,345.423645 1324.526123,345.423645 1319.304443,345.423645 
	C1319.143311,347.577545 1319.000977,349.480377 1318.800537,352.160034 
	C1317.682129,350.956909 1317.075684,350.254333 1316.417480,349.603943 
	C1308.357544,341.638306 1294.796997,342.413818 1287.697998,351.238892 
	C1281.027100,359.531738 1279.701172,374.375641 1284.791626,383.773590 
	C1290.199341,393.757294 1300.615601,397.859680 1310.515991,393.552063 
	C1313.515991,392.246857 1316.084351,389.949493 1318.850342,388.106598 
	C1319.253418,388.260925 1319.656494,388.415253 1320.059570,388.569580 
	C1318.695801,392.509155 1317.332031,396.448730 1315.422119,400.929993 
M1170.122192,351.634521 
	C1162.053101,361.854523 1161.273926,373.029053 1167.091309,384.261993 
	C1172.691040,395.074921 1183.074219,396.817474 1194.055908,396.190613 
	C1209.222046,395.324951 1218.143799,385.976227 1218.223267,370.761108 
	C1218.243774,366.830658 1217.463013,362.896027 1217.048950,358.949585 
	C1224.332275,355.091034 1225.593872,350.820648 1222.613281,339.750183 
	C1220.729126,339.750183 1218.808105,339.750183 1216.629150,339.750183 
	C1216.790283,341.196045 1217.175537,342.366730 1216.988770,343.437714 
	C1216.555908,345.920105 1215.846680,348.354340 1215.249512,350.808075 
	C1212.962158,350.147736 1210.320190,350.009979 1208.447266,348.738953 
	C1199.033813,342.350494 1180.573975,341.794861 1170.122192,351.634521 
M766.868103,344.897430 
	C766.500854,343.158600 766.133606,341.419739 765.807556,339.876099 
	C763.533630,339.876099 761.661926,339.876099 759.601318,339.876099 
	C759.794678,341.277618 760.163025,342.277466 760.014709,343.193634 
	C759.609436,345.696381 758.986389,348.163818 758.449646,350.645264 
	C756.027283,349.993805 753.556641,349.481171 751.193665,348.658997 
	C747.461304,347.360413 743.913696,345.219391 740.091675,344.541840 
	C719.898010,340.961884 705.803467,352.777313 706.725159,371.954712 
	C707.248291,382.838531 711.990173,390.681854 722.291809,394.605164 
	C733.485291,398.868164 748.432251,395.889435 755.207825,388.257538 
	C756.403625,386.910522 757.429810,385.360291 758.280273,383.768127 
	C762.537598,375.798279 761.683350,367.443329 759.794983,358.958313 
	C766.142517,356.639038 767.554077,351.730103 766.868103,344.897430 
M680.226501,390.892212 
	C681.004883,390.202576 681.783264,389.512909 682.801331,388.610870 
	C682.971497,391.051331 683.104675,392.961151 683.226929,394.714478 
	C688.705322,394.714478 693.762695,394.714478 699.108704,394.714478 
	C699.108704,382.580688 699.108704,370.807312 699.108704,359.111420 
	C708.613403,356.874176 711.130432,350.807373 707.356689,339.857880 
	C705.333252,339.857880 703.309814,339.857880 701.268311,339.857880 
	C701.664001,343.923218 703.881470,347.929993 699.269531,351.153442 
	C699.064575,348.947906 698.902649,347.204956 698.744812,345.506592 
	C693.359375,345.506592 688.292847,345.506592 682.994019,345.506592 
	C682.994019,353.670013 683.094788,361.486420 682.940125,369.297760 
	C682.884888,372.086792 682.557190,374.969666 681.743591,377.622528 
	C680.325134,382.247559 675.877014,384.773132 671.241943,384.072815 
	C666.182800,383.308472 665.035095,379.708984 664.947571,375.354248 
	C664.904114,373.190521 664.851990,371.026489 664.848694,368.862549 
	C664.836731,361.094238 664.843994,353.325928 664.843994,345.529510 
	C659.189087,345.529510 654.143250,345.529510 649.019531,345.529510 
	C649.019531,357.212799 648.613464,368.541931 649.129089,379.828949 
	C649.690247,392.114105 659.556885,398.983429 671.372253,395.700836 
	C674.318848,394.882202 676.922363,392.828796 680.226501,390.892212 
M1155.710449,345.642181 
	C1150.634644,345.642181 1145.558838,345.642181 1139.995239,345.642181 
	C1139.995239,352.078033 1140.113403,358.525787 1139.951782,364.966522 
	C1139.852295,368.928162 1139.735718,372.969604 1138.888428,376.812378 
	C1137.763428,381.914185 1133.374268,384.702209 1128.563965,384.133942 
	C1124.070435,383.603088 1122.213623,381.162109 1121.929077,375.222351 
	C1121.809814,372.731262 1121.849976,370.231720 1121.847046,367.735992 
	C1121.838135,360.313293 1121.843750,352.890594 1121.843750,345.399017 
	C1116.236938,345.399017 1111.313599,345.399017 1106.302124,345.399017 
	C1106.302124,357.891724 1105.574341,370.200470 1106.534302,382.376160 
	C1107.290649,391.968323 1114.822388,397.464050 1124.468872,396.066315 
	C1129.852661,395.286163 1134.898926,392.175751 1139.933838,390.180206 
	C1139.967651,390.916901 1140.055298,392.830505 1140.145264,394.796356 
	C1145.525391,394.796356 1150.593994,394.796356 1156.140381,394.796356 
	C1156.140381,382.644196 1156.140381,370.765656 1156.140381,358.999359 
	C1165.522949,357.114075 1167.610718,352.120819 1164.494141,339.758911 
	C1162.482422,339.758911 1160.421509,339.758911 1158.216309,339.758911 
	C1158.599976,343.738708 1160.847168,347.753052 1156.280396,351.238190 
	C1156.150391,349.283600 1156.057129,347.880402 1155.710449,345.642181 
M1445.935547,371.529602 
	C1445.920288,369.365173 1445.971069,367.197968 1445.878784,365.036804 
	C1445.350830,352.650696 1440.559326,346.196259 1428.293091,344.882874 
	C1419.694336,343.962189 1410.817505,345.522522 1402.081421,346.191498 
	C1401.271484,346.253510 1400.026367,347.831512 1399.938232,348.792999 
	C1399.660034,351.833374 1399.835571,354.915314 1399.835571,356.842255 
	C1407.617554,356.208832 1414.798584,355.260437 1421.989136,355.179901 
	C1426.092651,355.133911 1430.493042,357.508453 1429.430176,362.349182 
	C1421.729614,363.246307 1414.048950,363.545288 1406.656006,365.160919 
	C1398.378052,366.969940 1394.325684,374.223419 1395.567871,382.611542 
	C1396.552246,389.259033 1400.364502,393.666016 1406.596069,395.417358 
	C1413.969971,397.489746 1421.084473,396.714661 1426.979126,391.044952 
	C1427.701782,390.349945 1428.529663,389.764465 1429.614136,388.878937 
	C1429.805420,391.286926 1429.944702,393.039490 1430.080322,394.745697 
	C1435.475830,394.745697 1440.544922,394.745697 1445.935425,394.745697 
	C1445.935425,387.117188 1445.935425,379.818787 1445.935547,371.529602 
M1224.700317,372.499939 
	C1224.700317,379.915924 1224.700317,387.331940 1224.700317,394.668549 
	C1230.393433,394.668549 1235.423218,394.668549 1240.875977,394.668549 
	C1240.875977,385.627838 1240.655640,376.985687 1241.001343,368.366272 
	C1241.114868,365.537537 1241.930664,361.959930 1243.806519,360.181580 
	C1246.003296,358.098907 1249.677002,356.752197 1252.765991,356.640778 
	C1256.600586,356.502441 1258.385864,359.883972 1258.610229,363.489685 
	C1258.909302,368.298279 1258.873413,373.129822 1258.910645,377.952057 
	C1258.953979,383.549713 1258.920776,389.147919 1258.920776,394.725586 
	C1264.552856,394.725586 1269.602051,394.725586 1274.839478,394.725586 
	C1274.839478,383.415741 1275.122925,372.447937 1274.736572,361.503754 
	C1274.491943,354.574005 1271.969849,348.066772 1264.955078,345.420746 
	C1257.120605,342.465485 1249.568237,343.656860 1243.344482,349.912628 
	C1242.727173,350.533112 1241.926025,350.970734 1241.008301,351.640625 
	C1240.762085,349.284393 1240.561768,347.366547 1240.358398,345.419861 
	C1235.080566,345.419861 1230.160645,345.419861 1224.700195,345.419861 
	C1224.700195,354.282867 1224.700195,362.891418 1224.700317,372.499939 
M767.830078,365.500183 
	C767.830078,375.249390 767.830078,384.998596 767.830078,394.831390 
	C773.362183,394.831390 778.277893,394.831390 783.848145,394.831390 
	C783.848145,385.987793 783.578186,377.369324 783.989990,368.783539 
	C784.140320,365.648804 785.135071,361.855103 787.168030,359.713074 
	C789.080627,357.698029 792.851685,356.705933 795.835632,356.639862 
	C799.416748,356.560608 801.203857,359.617920 801.544434,363.071228 
	C801.837402,366.041473 801.887878,369.042999 801.906372,372.031525 
	C801.953186,379.618530 801.921997,387.205994 801.921997,394.764008 
	C807.610107,394.764008 812.667419,394.764008 817.864197,394.764008 
	C817.864197,383.496674 818.175537,372.530060 817.752808,361.591797 
	C817.478943,354.506165 814.936829,347.905579 807.580933,345.279205 
	C799.834473,342.513275 792.520081,343.890991 786.415955,349.851013 
	C785.759766,350.491699 784.973389,350.998962 783.982971,351.775391 
	C783.765991,349.373535 783.591858,347.446655 783.408447,345.416504 
	C778.168030,345.416504 773.258545,345.416504 767.830017,345.416504 
	C767.830017,351.943817 767.830017,358.222137 767.830078,365.500183 
M1066.704712,356.764221 
	C1067.285156,358.256561 1068.304077,359.729401 1068.371460,361.244568 
	C1068.689087,368.388092 1068.448730,375.565277 1068.979614,382.687866 
	C1069.504517,389.734222 1072.713623,393.558960 1079.696411,394.400177 
	C1086.167480,395.179718 1092.806396,394.566315 1099.410156,394.566315 
	C1099.410156,390.969391 1099.410156,387.556976 1099.410156,383.673889 
	C1095.956177,383.673889 1092.736572,384.075378 1089.691895,383.519073 
	C1087.943970,383.199738 1085.172119,381.399384 1085.102295,380.141266 
	C1084.674561,372.441437 1084.888306,364.706024 1084.888306,356.562042 
	C1090.484375,356.562042 1095.578125,356.562042 1100.657959,356.562042 
	C1100.657959,352.558655 1100.657959,348.999084 1100.657959,345.040161 
	C1095.219604,345.040161 1090.120728,345.040161 1084.538574,345.040161 
	C1084.538574,340.223785 1084.538574,335.809296 1084.538574,331.277771 
	C1078.977295,331.277771 1073.918335,331.277771 1068.340576,331.277771 
	C1068.340576,335.958191 1068.340576,340.371002 1068.340576,344.907257 
	C1065.585205,345.099304 1063.336060,345.256042 1060.983276,345.419983 
	C1060.983276,349.277771 1060.983276,352.853943 1060.983276,356.728363 
	C1062.804932,356.728363 1064.289429,356.728363 1066.704712,356.764221 
M935.374756,395.078613 
	C937.304321,395.078613 939.233826,395.078613 941.260132,395.078613 
	C941.260132,391.034454 941.260132,387.613739 941.260132,383.672852 
	C937.833618,383.672852 934.683167,383.799652 931.547791,383.636719 
	C928.499878,383.478271 926.562744,381.920776 926.556702,378.621094 
	C926.543518,371.506500 926.552612,364.391846 926.552612,356.741730 
	C932.033447,356.741730 937.272766,356.741730 942.601318,356.741730 
	C942.601318,352.643829 942.601318,349.092438 942.601318,344.984497 
	C937.057983,344.984497 931.833191,344.984497 926.116089,344.984497 
	C926.116089,340.037537 926.116089,335.638855 926.116089,331.277863 
	C920.677185,331.277863 915.768066,331.277863 910.341919,331.277863 
	C910.341919,335.958038 910.341919,340.371765 910.341919,344.912109 
	C907.571533,345.090698 905.304626,345.236847 902.803772,345.398071 
	C902.803772,349.170074 902.803772,352.723419 902.803772,356.459900 
	C905.402222,356.640564 907.662415,356.797729 910.448792,356.991455 
	C910.448792,359.004028 910.425415,360.791992 910.453003,362.579163 
	C910.553162,369.067688 910.357788,375.580292 910.859375,382.038300 
	C911.504333,390.342407 915.598328,394.205475 923.925415,394.917267 
	C927.399231,395.214172 930.913513,395.039093 935.374756,395.078613 
M1381.855957,394.234589 
	C1381.855957,371.493805 1381.855957,348.753021 1381.855957,326.105225 
	C1376.247437,326.105225 1371.308472,326.105225 1366.354736,326.105225 
	C1366.354736,349.239777 1366.354736,372.110382 1366.354736,394.949982 
	C1371.564453,394.949982 1376.391235,394.949982 1381.855957,394.234589 
M1468.276733,393.937714 
	C1468.276733,377.738098 1468.276733,361.538513 1468.276733,345.459412 
	C1462.643066,345.459412 1457.722534,345.459412 1452.626953,345.459412 
	C1452.626953,362.123840 1452.626953,378.473206 1452.626953,394.751617 
	C1457.948242,394.751617 1462.911377,394.751617 1468.276733,393.937714 
M1452.258057,331.541595 
	C1452.258057,333.821320 1452.258057,336.101013 1452.258057,338.550293 
	C1457.867432,338.550293 1462.904297,338.550293 1468.017090,338.550293 
	C1468.017090,334.186432 1468.017090,330.140961 1468.017090,326.042755 
	C1462.713501,326.042755 1457.774292,326.042755 1452.514648,326.042755 
	C1452.421265,327.705841 1452.339722,329.158630 1452.258057,331.541595 
M1014.489624,338.858063 
	C1016.910156,338.858063 1019.330688,338.858063 1021.752075,338.858063 
	C1021.752075,334.156647 1021.752075,330.111725 1021.752075,326.255127 
	C1016.385132,326.255127 1011.365417,326.255127 1006.424622,326.255127 
	C1006.424622,330.603516 1006.424622,334.509430 1006.424622,338.858002 
	C1008.973877,338.858002 1011.256897,338.858002 1014.489624,338.858063 
M983.676147,322.041046 
	C981.861328,322.492767 979.335083,322.343262 978.356323,323.501465 
	C974.356201,328.234924 970.828918,333.367950 966.887695,338.676880 
	C970.177979,338.676880 973.676025,339.759888 975.205017,338.483704 
	C980.903870,333.727173 985.956543,328.196350 992.176208,322.041107 
	C988.495605,322.041107 986.525818,322.041107 983.676147,322.041046 
M736.418518,327.861664 
	C733.861816,331.354828 731.305115,334.847961 728.072632,339.264374 
	C732.013977,338.889648 735.394409,339.596924 737.047241,338.224091 
	C742.665405,333.557678 747.673523,328.156769 753.489990,322.474243 
	C741.223755,321.359955 741.223755,321.359955 736.418518,327.861664 
z"/>
<path fill="#C84B1D" opacity="1.000000" stroke="none" 
	d="
M106.275208,205.272171 
	C156.384384,170.567062 206.237854,136.126053 255.942596,101.471718 
	C259.794312,98.786278 262.118927,99.015030 265.832703,101.600723 
	C317.609741,137.649780 369.502716,173.532471 421.427216,209.369110 
	C424.019745,211.158401 425.142426,212.946136 425.136444,216.215485 
	C425.024811,277.364655 425.074097,338.514069 425.040039,399.663452 
	C425.030884,416.127441 414.224670,426.832397 397.775085,426.837860 
	C367.126770,426.848022 336.478485,426.840759 305.157532,426.840759 
	C305.157532,372.984497 305.157532,319.312073 305.157532,265.403076 
	C277.224182,265.403076 249.962524,265.403076 222.159943,265.403076 
	C222.159943,318.959808 222.159943,372.504272 222.159943,426.840759 
	C219.877686,426.840759 218.127396,426.840759 216.377106,426.840759 
	C185.385864,426.840698 154.394638,426.850220 123.403397,426.836517 
	C107.681816,426.829590 96.749664,416.435089 96.716873,400.760651 
	C96.587563,338.945068 96.636337,277.129028 96.771729,215.313507 
	C96.775597,213.548584 98.150223,211.442490 99.494019,210.108078 
	C101.353836,208.261230 103.791618,206.996399 106.275208,205.272171 
z"/>
<path fill="#F0771B" opacity="1.000000" stroke="none" 
	d="
M1247.404297,177.585907 
	C1237.123657,157.786240 1227.034180,138.304459 1216.289551,117.557594 
	C1216.289551,155.320465 1216.289551,191.756027 1216.289551,228.631744 
	C1202.929199,228.631744 1190.080078,228.631744 1176.973267,228.631744 
	C1176.973267,174.325439 1176.973267,120.094475 1176.973267,65.267799 
	C1184.824707,65.267799 1192.444946,65.267799 1200.065186,65.267799 
	C1206.063599,65.267799 1212.072510,65.480316 1218.056396,65.186302 
	C1221.522217,65.016014 1223.373291,66.186928 1224.960205,69.281731 
	C1237.246216,93.244225 1249.700806,117.120384 1262.122803,141.013062 
	C1268.097534,152.504822 1274.114746,163.974564 1280.880859,175.395660 
	C1280.880859,138.966904 1280.880859,102.538155 1280.880859,65.690704 
	C1294.249023,65.690704 1306.991333,65.690704 1320.161377,65.690704 
	C1320.161377,119.915016 1320.161377,174.275665 1320.161377,229.069016 
	C1305.390991,229.069016 1290.759155,229.150787 1276.132202,228.922241 
	C1274.889038,228.902802 1273.251343,227.038010 1272.517700,225.649597 
	C1264.129395,209.777054 1255.881104,193.830551 1247.404297,177.585907 
z"/>
<path fill="#F0761A" opacity="1.000000" stroke="none" 
	d="
M1504.730469,123.000061 
	C1504.730347,158.457306 1504.730347,193.414566 1504.730347,228.721375 
	C1490.791138,228.721375 1477.248779,228.721375 1463.197021,228.721375 
	C1463.197021,205.870499 1463.197021,183.136261 1463.197021,160.126526 
	C1442.767822,160.126526 1422.843384,160.126526 1402.413818,160.126526 
	C1402.413818,182.875244 1402.413818,205.612183 1402.413818,228.709076 
	C1388.510498,228.709076 1375.101807,228.709076 1361.309082,228.709076 
	C1361.309082,174.513397 1361.309082,120.165146 1361.309082,65.542725 
	C1374.843994,65.542725 1388.246826,65.542725 1402.045654,65.542725 
	C1402.045654,86.237839 1402.045654,106.672470 1402.045654,127.515823 
	C1422.468018,127.515823 1442.499878,127.515823 1462.983154,127.515823 
	C1462.983154,107.104637 1462.983154,86.685219 1462.983154,65.769524 
	C1476.935425,65.769524 1490.452148,65.769524 1504.730469,65.769524 
	C1504.730469,84.656212 1504.730469,103.578133 1504.730469,123.000061 
z"/>
<path fill="#C94D1F" opacity="1.000000" stroke="none" 
	d="
M375.998352,61.154205 
	C380.663452,61.154388 384.829437,61.118874 388.994598,61.162010 
	C398.118042,61.256512 402.895081,65.931633 402.916992,75.036293 
	C402.973938,98.696762 403.025848,122.358154 402.841797,146.017334 
	C402.813538,149.645828 404.032593,151.644882 406.950836,153.629471 
	C435.028656,172.724106 463.022888,191.942139 490.963806,211.236664 
	C493.209900,212.787720 495.512512,214.860214 496.678986,217.235443 
	C498.609406,221.166290 497.661652,225.201691 494.137177,228.013214 
	C490.302185,231.072403 486.070404,230.889908 482.075958,228.201981 
	C473.652130,222.533371 465.299500,216.758835 456.923706,211.018967 
	C393.078674,167.266510 329.214691,123.541672 265.451874,79.669777 
	C262.281219,77.488228 260.402771,77.635025 257.319916,79.750999 
	C186.095718,128.637650 114.782799,177.395035 43.485920,226.175827 
	C42.386974,226.927719 41.318085,227.731293 40.175495,228.410339 
	C35.014313,231.477692 30.028811,230.582275 27.017027,226.086884 
	C23.959272,221.522842 24.704878,216.332230 29.340912,212.858887 
	C34.399273,209.069122 39.700756,205.602112 44.919983,202.029068 
	C113.457260,155.108932 181.999557,108.196098 250.533478,61.271091 
	C251.902832,60.333500 253.239120,59.332687 254.501572,58.256649 
	C258.706299,54.672794 263.365784,54.862545 268.024048,58.100304 
	C289.188599,72.810776 310.460602,87.366631 332.663147,102.645081 
	C332.663147,93.444756 332.628235,85.220428 332.684265,76.996712 
	C332.701233,74.507164 332.602051,71.926949 333.198975,69.549690 
	C334.496979,64.380135 339.417114,61.238708 346.005981,61.180054 
	C355.836212,61.092537 365.667786,61.155331 375.998352,61.154205 
z"/>
<path fill="#F0771B" opacity="1.000000" stroke="none" 
	d="
M834.935974,99.887779 
	C834.935974,102.807388 834.935974,105.246147 834.935974,107.880501 
	C826.540344,104.411736 818.783752,100.638451 810.662781,97.976822 
	C796.260803,93.256599 781.471558,91.387207 766.414917,94.759529 
	C747.105896,99.084320 735.916077,111.445305 731.824585,130.444901 
	C728.752502,144.710861 729.170532,158.971161 734.127319,172.761581 
	C741.343689,192.838303 760.387512,203.657013 784.142273,201.678116 
	C801.414001,200.239273 801.413940,200.239273 801.413940,183.113647 
	C801.413940,177.822830 801.414001,172.532013 801.414001,166.619644 
	C792.833618,166.619644 784.766357,166.619644 776.434204,166.619644 
	C776.434204,156.922058 776.434204,147.856964 776.434204,138.471863 
	C797.873962,138.471863 819.093140,138.471863 840.635254,138.471863 
	C840.712585,139.766296 840.837769,140.889267 840.838318,142.012299 
	C840.849731,165.674255 840.808594,189.336349 840.901062,212.997940 
	C840.911316,215.619858 840.378235,217.232635 837.768311,218.398407 
	C807.537537,231.901138 776.263000,236.758072 743.937561,228.139755 
	C712.203491,219.679092 691.140808,193.557678 688.023315,160.852005 
	C686.390198,143.719162 687.267639,126.887627 693.889526,110.806183 
	C704.378235,85.334213 724.088440,70.595848 750.444458,65.192566 
	C778.149597,59.512684 805.362122,62.439842 831.632385,73.305786 
	C834.249573,74.388275 835.073975,75.681419 834.999451,78.412865 
	C834.808655,85.406258 834.935913,92.408325 834.935974,99.887779 
z"/>
<path fill="#F0761A" opacity="1.000000" stroke="none" 
	d="
M1113.400391,113.561371 
	C1127.386475,152.026382 1141.218994,190.132156 1155.354370,229.072006 
	C1148.201172,229.072006 1141.651978,229.072021 1135.102661,229.071976 
	C1129.102905,229.071945 1123.099976,228.960373 1117.104736,229.123840 
	C1114.524536,229.194199 1113.326416,228.395935 1112.537231,225.819183 
	C1110.200195,218.188477 1107.415405,210.695816 1105.009766,203.084702 
	C1104.134644,200.315704 1102.839233,199.180008 1099.758057,199.204056 
	C1080.760010,199.352295 1061.759277,199.361908 1042.761475,199.196518 
	C1039.573975,199.168777 1038.475708,200.405655 1037.608154,203.195969 
	C1035.244629,210.797409 1032.636963,218.327072 1029.920532,225.810593 
	C1029.458008,227.084549 1027.994507,228.908920 1026.968140,228.925720 
	C1014.009216,229.138016 1001.045532,229.065231 987.335388,229.065231 
	C990.772949,219.416870 993.943542,210.378479 997.210022,201.374878 
	C1008.192749,171.102829 1019.215942,140.845459 1030.211060,110.577896 
	C1035.248779,96.709709 1040.329712,82.856308 1045.219116,68.935791 
	C1046.214478,66.101624 1047.653198,65.168114 1050.636230,65.201576 
	C1064.467407,65.356720 1078.301270,65.303215 1092.133911,65.238037 
	C1094.479126,65.226982 1096.106201,65.463654 1097.052979,68.161469 
	C1102.335693,83.215431 1107.826904,98.196274 1113.400391,113.561371 
M1077.799561,122.737457 
	C1075.790527,116.895630 1073.781494,111.053795 1071.345825,103.971260 
	C1063.774048,126.325142 1056.636719,147.396286 1049.405396,168.744873 
	C1064.521484,168.744873 1078.604980,168.744873 1093.134521,168.744873 
	C1088.026123,153.417892 1083.038452,138.452988 1077.799561,122.737457 
z"/>
<path fill="#F0771B" opacity="1.000000" stroke="none" 
	d="
M948.937256,131.000000 
	C948.937256,163.796783 948.937256,196.093567 948.937256,228.732056 
	C935.039368,228.732056 921.490601,228.732056 907.409119,228.732056 
	C907.409119,185.020370 907.409119,141.438446 907.409119,97.348991 
	C889.467712,97.348991 872.045959,97.348991 854.347534,97.348991 
	C854.347534,86.573769 854.347534,76.305344 854.347534,65.649994 
	C903.393127,65.649994 952.433838,65.649994 1001.740356,65.649994 
	C1001.740356,76.020332 1001.740356,86.276840 1001.740356,97.126038 
	C984.338196,97.126038 966.961060,97.126038 948.937256,97.126038 
	C948.937256,108.635796 948.937256,119.567902 948.937256,131.000000 
z"/>
<path fill="#F0771B" opacity="1.000000" stroke="none" 
	d="
M621.961914,99.360229 
	C621.931763,142.306808 621.920898,184.787354 621.902039,227.267899 
	C621.901917,227.590439 621.792603,227.912964 621.658386,228.655014 
	C608.187622,228.655014 594.634033,228.655014 580.544189,228.655014 
	C580.544189,185.198837 580.544189,141.630661 580.544189,97.509949 
	C562.623596,97.509949 545.222900,97.509949 527.489014,97.509949 
	C527.489014,86.703987 527.489014,76.445816 527.489014,65.724770 
	C576.465027,65.724770 625.479187,65.724770 674.785034,65.724770 
	C674.785034,75.989029 674.785034,86.239906 674.785034,97.281921 
	C673.060913,97.281921 671.319214,97.281914 669.577454,97.281921 
	C655.250610,97.281960 640.923340,97.233109 626.597534,97.352722 
	C625.054443,97.365601 623.519470,98.356819 621.961914,99.360229 
z"/>
<path fill="#B02D2D" opacity="1.000000" stroke="none" 
	d="
M575.181091,395.010315 
	C574.435303,394.568268 573.944092,394.176483 573.943359,393.783875 
	C573.906433,372.319489 573.910645,350.855042 573.910645,329.048340 
	C579.548828,329.048340 584.935913,329.048340 590.764099,329.048340 
	C590.764099,337.198730 590.764099,345.290283 590.764099,353.685364 
	C599.268188,353.685364 607.347778,353.685364 616.075928,353.685364 
	C616.075928,345.589966 616.075928,337.383728 616.075928,328.953613 
	C621.990417,328.953613 627.263245,328.953613 632.916870,328.953613 
	C632.916870,350.846527 632.916870,372.708405 632.916870,394.821747 
	C627.439453,394.821747 622.039429,394.821747 616.325378,394.821747 
	C616.325378,385.623444 616.325378,376.672119 616.325378,367.327240 
	C607.826904,367.327240 599.630859,367.327240 590.962158,367.327240 
	C590.962158,376.417999 590.962158,385.494049 590.962158,395.060242 
	C585.561829,395.060242 580.613220,395.060242 575.181091,395.010315 
z"/>
<path fill="#B02E2E" opacity="1.000000" stroke="none" 
	d="
M849.029175,414.928131 
	C846.248718,414.716461 843.901245,414.663269 841.616089,414.258484 
	C828.879883,412.002380 830.466431,414.244751 831.226807,401.068115 
	C836.944153,402.088257 842.722595,403.883057 848.531311,403.986938 
	C858.702271,404.168854 862.922119,398.666260 861.733337,388.589600 
	C858.439819,390.445740 855.247742,392.898743 851.639038,394.150360 
	C842.454956,397.335754 832.502563,392.983368 828.038696,384.162903 
	C823.917847,376.020508 823.507507,367.361328 826.368896,358.908203 
	C831.823181,342.795380 849.406433,339.192413 861.776184,351.906464 
	C862.037354,349.567810 862.256592,347.604523 862.501526,345.411316 
	C867.633057,345.411316 872.560669,345.411316 878.170654,345.411316 
	C878.170654,348.920288 878.170654,352.351776 878.170654,355.783264 
	C878.170593,366.614960 878.215881,377.446899 878.160034,388.278290 
	C878.074341,404.897644 870.089661,413.419891 853.483704,414.712616 
	C852.155334,414.816071 850.821960,414.855225 849.029175,414.928131 
M855.610046,356.292633 
	C848.538208,355.157776 844.646179,356.513763 842.653870,361.528381 
	C840.506165,366.934021 840.295105,372.590668 842.792908,378.002289 
	C845.786438,384.488129 854.881897,385.516754 859.331299,379.995148 
	C864.234680,373.910126 862.610352,361.622009 855.610046,356.292633 
z"/>
<path fill="#B02E2E" opacity="1.000000" stroke="none" 
	d="
M1315.695190,400.659149 
	C1317.332031,396.448730 1318.695801,392.509155 1320.059570,388.569580 
	C1319.656494,388.415253 1319.253418,388.260925 1318.850342,388.106598 
	C1316.084351,389.949493 1313.515991,392.246857 1310.515991,393.552063 
	C1300.615601,397.859680 1290.199341,393.757294 1284.791626,383.773590 
	C1279.701172,374.375641 1281.027100,359.531738 1287.697998,351.238892 
	C1294.796997,342.413818 1308.357544,341.638306 1316.417480,349.603943 
	C1317.075684,350.254333 1317.682129,350.956909 1318.800537,352.160034 
	C1319.000977,349.480377 1319.143311,347.577545 1319.304443,345.423645 
	C1324.526123,345.423645 1329.597412,345.423645 1335.170288,345.423645 
	C1335.170288,358.250244 1335.207886,370.851074 1335.148926,383.451447 
	C1335.129517,387.603638 1335.341919,391.841370 1334.613037,395.889648 
	C1332.612793,406.999390 1324.099609,413.882477 1310.822266,414.562195 
	C1304.605591,414.880432 1298.312988,413.554504 1292.045410,413.104218 
	C1288.697021,412.863647 1287.419922,411.317749 1287.778320,407.965851 
	C1288.041138,405.508728 1287.829834,403.000916 1287.829834,400.030609 
	C1297.149414,403.752167 1306.213867,407.105194 1315.695190,400.659149 
M1319.003052,372.163452 
	C1318.611084,368.732758 1318.734375,365.136353 1317.697876,361.912903 
	C1316.377197,357.805511 1313.083618,355.714783 1308.524414,355.681610 
	C1304.076172,355.649292 1301.091064,358.001831 1299.609497,361.675049 
	C1297.446045,367.038910 1297.345703,372.670776 1299.814575,378.120270 
	C1301.415527,381.653625 1304.237915,383.393921 1308.043945,383.506989 
	C1311.968750,383.623566 1315.268433,382.292786 1317.104126,378.634125 
	C1317.977173,376.894318 1318.356445,374.906891 1319.003052,372.163452 
z"/>
<path fill="#B02E2E" opacity="1.000000" stroke="none" 
	d="
M1005.030762,349.095551 
	C1005.397217,354.067719 1003.326843,357.367401 998.133911,358.690033 
	C998.520508,360.512177 998.917114,362.242401 999.252686,363.984375 
	C1002.858276,382.705048 992.458862,395.744171 973.472290,396.320221 
	C950.497559,397.017242 937.676514,376.327393 948.521973,356.056915 
	C953.252747,347.215118 965.300781,342.178650 977.603638,344.433441 
	C981.746521,345.192719 985.635681,347.280609 989.684814,348.629181 
	C992.053223,349.418030 994.508606,349.945953 996.924927,350.591248 
	C997.419617,347.985809 997.983643,345.390472 998.365295,342.768524 
	C998.474426,342.018311 998.055481,341.191223 997.883545,340.420990 
	C1003.847839,338.523529 1004.410706,338.829681 1005.050781,344.997192 
	C1005.006226,346.908508 1005.018494,348.002014 1005.030762,349.095551 
M978.249939,357.082214 
	C970.060852,353.683899 963.666016,356.309814 962.399292,364.417847 
	C961.683044,369.002289 962.271667,373.994415 963.271301,378.585510 
	C964.261902,383.135712 968.074707,385.018463 972.724243,385.003418 
	C977.286987,384.988678 980.518921,382.704498 981.803894,378.568268 
	C984.091064,371.205963 984.554871,363.867401 978.249939,357.082214 
z"/>
<path fill="#B02E2E" opacity="1.000000" stroke="none" 
	d="
M1170.377441,351.379028 
	C1180.573975,341.794861 1199.033813,342.350494 1208.447266,348.738953 
	C1210.320190,350.009979 1212.962158,350.147736 1215.249512,350.808105 
	C1215.846680,348.354340 1216.555908,345.920105 1216.988770,343.437714 
	C1217.175537,342.366730 1216.790283,341.196045 1216.629150,339.750183 
	C1218.808105,339.750183 1220.729126,339.750183 1222.613281,339.750183 
	C1225.593872,350.820648 1224.332275,355.091034 1217.048950,358.949585 
	C1217.463013,362.896027 1218.243774,366.830658 1218.223267,370.761108 
	C1218.143799,385.976227 1209.222046,395.324951 1194.055908,396.190613 
	C1183.074219,396.817474 1172.691040,395.074921 1167.091309,384.261993 
	C1161.273926,373.029053 1162.053101,361.854523 1170.377441,351.379028 
M1185.287842,383.467834 
	C1192.424805,386.583984 1199.076904,384.538177 1200.567627,377.895081 
	C1201.621460,373.198608 1201.533447,367.985077 1200.725586,363.210419 
	C1200.020508,359.043152 1197.113770,355.892120 1192.115601,355.562225 
	C1187.411499,355.251740 1184.032104,357.055206 1181.844971,361.089020 
	C1178.483887,367.288452 1179.852783,377.530060 1185.287842,383.467834 
z"/>
<path fill="#B02E2E" opacity="1.000000" stroke="none" 
	d="
M766.918884,345.333679 
	C767.554077,351.730103 766.142517,356.639038 759.794983,358.958313 
	C761.683350,367.443329 762.537598,375.798279 758.280273,383.768127 
	C757.429810,385.360291 756.403625,386.910522 755.207825,388.257538 
	C748.432251,395.889435 733.485291,398.868164 722.291809,394.605164 
	C711.990173,390.681854 707.248291,382.838531 706.725159,371.954712 
	C705.803467,352.777313 719.898010,340.961884 740.091675,344.541840 
	C743.913696,345.219391 747.461304,347.360413 751.193665,348.658997 
	C753.556641,349.481171 756.027283,349.993805 758.449646,350.645264 
	C758.986389,348.163818 759.609436,345.696381 760.014709,343.193634 
	C760.163025,342.277466 759.794678,341.277618 759.601318,339.876099 
	C761.661926,339.876099 763.533630,339.876099 765.807556,339.876099 
	C766.133606,341.419739 766.500854,343.158600 766.918884,345.333679 
M724.566589,378.625885 
	C726.443054,383.162201 729.840210,385.336761 734.731079,384.981232 
	C739.155823,384.659607 742.795593,382.356995 743.464722,378.116455 
	C744.269470,373.016144 744.336792,367.588501 743.499084,362.504272 
	C742.779663,358.138519 739.195557,355.522064 734.417419,355.477051 
	C729.809631,355.433655 725.776428,357.247162 724.942871,361.871826 
	C724.002136,367.091309 724.397644,372.551636 724.566589,378.625885 
z"/>
<path fill="#B02E2E" opacity="1.000000" stroke="none" 
	d="
M679.955078,391.117554 
	C676.922363,392.828796 674.318848,394.882202 671.372253,395.700836 
	C659.556885,398.983429 649.690247,392.114105 649.129089,379.828949 
	C648.613464,368.541931 649.019531,357.212799 649.019531,345.529510 
	C654.143250,345.529510 659.189087,345.529510 664.843994,345.529510 
	C664.843994,353.325928 664.836731,361.094238 664.848694,368.862549 
	C664.851990,371.026489 664.904114,373.190521 664.947571,375.354248 
	C665.035095,379.708984 666.182800,383.308472 671.241943,384.072815 
	C675.877014,384.773132 680.325134,382.247559 681.743591,377.622528 
	C682.557190,374.969666 682.884888,372.086792 682.940125,369.297760 
	C683.094788,361.486420 682.994019,353.670013 682.994019,345.506592 
	C688.292847,345.506592 693.359375,345.506592 698.744812,345.506592 
	C698.902649,347.204956 699.064575,348.947906 699.269531,351.153442 
	C703.881470,347.929993 701.664001,343.923218 701.268311,339.857880 
	C703.309814,339.857880 705.333252,339.857880 707.362427,339.857361 
	C711.130432,350.807373 708.613403,356.874176 699.108704,359.111420 
	C699.108704,370.807312 699.108704,382.580688 699.108704,394.714478 
	C693.762695,394.714478 688.705322,394.714478 683.226929,394.714478 
	C683.104675,392.961151 682.971497,391.051331 682.801331,388.610870 
	C681.783264,389.512909 681.004883,390.202576 679.955078,391.117554 
z"/>
<path fill="#B02E2E" opacity="1.000000" stroke="none" 
	d="
M1155.837158,346.059692 
	C1156.057129,347.880402 1156.150391,349.283600 1156.280396,351.238190 
	C1160.847168,347.753052 1158.599976,343.738708 1158.216309,339.758911 
	C1160.421509,339.758911 1162.482422,339.758911 1164.494141,339.758911 
	C1167.610718,352.120819 1165.522949,357.114075 1156.140381,358.999359 
	C1156.140381,370.765656 1156.140381,382.644196 1156.140381,394.796356 
	C1150.593994,394.796356 1145.525391,394.796356 1140.145264,394.796356 
	C1140.055298,392.830505 1139.967651,390.916901 1139.933838,390.180206 
	C1134.898926,392.175751 1129.852661,395.286163 1124.468872,396.066315 
	C1114.822388,397.464050 1107.290649,391.968323 1106.534302,382.376160 
	C1105.574341,370.200470 1106.302124,357.891724 1106.302124,345.399017 
	C1111.313599,345.399017 1116.236938,345.399017 1121.843750,345.399017 
	C1121.843750,352.890594 1121.838135,360.313293 1121.847046,367.735992 
	C1121.849976,370.231720 1121.809814,372.731262 1121.929077,375.222351 
	C1122.213623,381.162109 1124.070435,383.603088 1128.563965,384.133942 
	C1133.374268,384.702209 1137.763428,381.914185 1138.888428,376.812378 
	C1139.735718,372.969604 1139.852295,368.928162 1139.951782,364.966522 
	C1140.113403,358.525787 1139.995239,352.078033 1139.995239,345.642181 
	C1145.558838,345.642181 1150.634644,345.642181 1155.837158,346.059692 
z"/>
<path fill="#B02E2E" opacity="1.000000" stroke="none" 
	d="
M1445.935547,372.024963 
	C1445.935425,379.818787 1445.935425,387.117188 1445.935425,394.745697 
	C1440.544922,394.745697 1435.475830,394.745697 1430.080322,394.745697 
	C1429.944702,393.039490 1429.805420,391.286926 1429.614136,388.878937 
	C1428.529663,389.764465 1427.701782,390.349945 1426.979126,391.044952 
	C1421.084473,396.714661 1413.969971,397.489746 1406.596069,395.417358 
	C1400.364502,393.666016 1396.552246,389.259033 1395.567871,382.611542 
	C1394.325684,374.223419 1398.378052,366.969940 1406.656006,365.160919 
	C1414.048950,363.545288 1421.729614,363.246307 1429.430176,362.349182 
	C1430.493042,357.508453 1426.092651,355.133911 1421.989136,355.179901 
	C1414.798584,355.260437 1407.617554,356.208832 1399.835571,356.842255 
	C1399.835571,354.915314 1399.660034,351.833374 1399.938232,348.792999 
	C1400.026367,347.831512 1401.271484,346.253510 1402.081421,346.191498 
	C1410.817505,345.522522 1419.694336,343.962189 1428.293091,344.882874 
	C1440.559326,346.196259 1445.350830,352.650696 1445.878784,365.036804 
	C1445.971069,367.197968 1445.920288,369.365173 1445.935547,372.024963 
M1425.140015,383.803009 
	C1428.635254,381.078705 1430.083496,377.568359 1429.521729,372.496704 
	C1424.804077,372.908569 1420.287354,372.765167 1416.124268,373.908905 
	C1414.238403,374.427094 1411.879639,377.500458 1411.879639,379.414612 
	C1411.879517,381.364807 1414.179199,384.416779 1416.076904,384.992462 
	C1418.573242,385.749725 1421.660522,384.559143 1425.140015,383.803009 
z"/>
<path fill="#B02E2E" opacity="1.000000" stroke="none" 
	d="
M1224.700195,371.999939 
	C1224.700195,362.891418 1224.700195,354.282867 1224.700195,345.419861 
	C1230.160645,345.419861 1235.080566,345.419861 1240.358398,345.419861 
	C1240.561768,347.366547 1240.762085,349.284393 1241.008301,351.640625 
	C1241.926025,350.970734 1242.727173,350.533112 1243.344482,349.912628 
	C1249.568237,343.656860 1257.120605,342.465485 1264.955078,345.420746 
	C1271.969849,348.066772 1274.491943,354.574005 1274.736572,361.503754 
	C1275.122925,372.447937 1274.839478,383.415741 1274.839478,394.725586 
	C1269.602051,394.725586 1264.552856,394.725586 1258.920776,394.725586 
	C1258.920776,389.147919 1258.953979,383.549713 1258.910645,377.952057 
	C1258.873413,373.129822 1258.909302,368.298279 1258.610229,363.489685 
	C1258.385864,359.883972 1256.600586,356.502441 1252.765991,356.640778 
	C1249.677002,356.752197 1246.003296,358.098907 1243.806519,360.181580 
	C1241.930664,361.959930 1241.114868,365.537537 1241.001343,368.366272 
	C1240.655640,376.985687 1240.875977,385.627838 1240.875977,394.668549 
	C1235.423218,394.668549 1230.393433,394.668549 1224.700317,394.668549 
	C1224.700317,387.331940 1224.700317,379.915924 1224.700195,371.999939 
z"/>
<path fill="#B02E2E" opacity="1.000000" stroke="none" 
	d="
M767.830078,365.000305 
	C767.830017,358.222137 767.830017,351.943817 767.830017,345.416504 
	C773.258545,345.416504 778.168030,345.416504 783.408447,345.416504 
	C783.591858,347.446655 783.765991,349.373535 783.982971,351.775391 
	C784.973389,350.998962 785.759766,350.491699 786.415955,349.851013 
	C792.520081,343.890991 799.834473,342.513275 807.580933,345.279205 
	C814.936829,347.905579 817.478943,354.506165 817.752808,361.591797 
	C818.175537,372.530060 817.864197,383.496674 817.864197,394.764008 
	C812.667419,394.764008 807.610107,394.764008 801.921997,394.764008 
	C801.921997,387.205994 801.953186,379.618530 801.906372,372.031525 
	C801.887878,369.042999 801.837402,366.041473 801.544434,363.071228 
	C801.203857,359.617920 799.416748,356.560608 795.835632,356.639862 
	C792.851685,356.705933 789.080627,357.698029 787.168030,359.713074 
	C785.135071,361.855103 784.140320,365.648804 783.989990,368.783539 
	C783.578186,377.369324 783.848145,385.987793 783.848145,394.831390 
	C778.277893,394.831390 773.362183,394.831390 767.830078,394.831390 
	C767.830078,384.998596 767.830078,375.249390 767.830078,365.000305 
z"/>
<path fill="#B02E2E" opacity="1.000000" stroke="none" 
	d="
M1066.239258,356.746277 
	C1064.289429,356.728363 1062.804932,356.728363 1060.983276,356.728363 
	C1060.983276,352.853943 1060.983276,349.277771 1060.983276,345.419983 
	C1063.336060,345.256042 1065.585205,345.099304 1068.340576,344.907257 
	C1068.340576,340.371002 1068.340576,335.958191 1068.340576,331.277771 
	C1073.918335,331.277771 1078.977295,331.277771 1084.538574,331.277771 
	C1084.538574,335.809296 1084.538574,340.223785 1084.538574,345.040161 
	C1090.120728,345.040161 1095.219604,345.040161 1100.657959,345.040161 
	C1100.657959,348.999084 1100.657959,352.558655 1100.657959,356.562042 
	C1095.578125,356.562042 1090.484375,356.562042 1084.888306,356.562042 
	C1084.888306,364.706024 1084.674561,372.441437 1085.102295,380.141266 
	C1085.172119,381.399384 1087.943970,383.199738 1089.691895,383.519073 
	C1092.736572,384.075378 1095.956177,383.673889 1099.410156,383.673889 
	C1099.410156,387.556976 1099.410156,390.969391 1099.410156,394.566315 
	C1092.806396,394.566315 1086.167480,395.179718 1079.696411,394.400177 
	C1072.713623,393.558960 1069.504517,389.734222 1068.979614,382.687866 
	C1068.448730,375.565277 1068.689087,368.388092 1068.371460,361.244568 
	C1068.304077,359.729401 1067.285156,358.256561 1066.239258,356.746277 
z"/>
<path fill="#B02E2E" opacity="1.000000" stroke="none" 
	d="
M934.892090,395.078613 
	C930.913513,395.039093 927.399231,395.214172 923.925415,394.917267 
	C915.598328,394.205475 911.504333,390.342407 910.859375,382.038300 
	C910.357788,375.580292 910.553162,369.067688 910.453003,362.579163 
	C910.425415,360.791992 910.448792,359.004028 910.448792,356.991455 
	C907.662415,356.797729 905.402222,356.640564 902.803772,356.459900 
	C902.803772,352.723419 902.803772,349.170074 902.803772,345.398071 
	C905.304626,345.236847 907.571533,345.090698 910.341919,344.912109 
	C910.341919,340.371765 910.341919,335.958038 910.341919,331.277863 
	C915.768066,331.277863 920.677185,331.277863 926.116089,331.277863 
	C926.116089,335.638855 926.116089,340.037537 926.116089,344.984497 
	C931.833191,344.984497 937.057983,344.984497 942.601318,344.984497 
	C942.601318,349.092438 942.601318,352.643829 942.601318,356.741730 
	C937.272766,356.741730 932.033447,356.741730 926.552612,356.741730 
	C926.552612,364.391846 926.543518,371.506500 926.556702,378.621094 
	C926.562744,381.920776 928.499878,383.478271 931.547791,383.636719 
	C934.683167,383.799652 937.833618,383.672852 941.260132,383.672852 
	C941.260132,387.613739 941.260132,391.034454 941.260132,395.078613 
	C939.233826,395.078613 937.304321,395.078613 934.892090,395.078613 
z"/>
<path fill="#AF2C2C" opacity="1.000000" stroke="none" 
	d="
M1381.536865,394.592285 
	C1376.391235,394.949982 1371.564453,394.949982 1366.354736,394.949982 
	C1366.354736,372.110382 1366.354736,349.239777 1366.354736,326.105225 
	C1371.308472,326.105225 1376.247437,326.105225 1381.855957,326.105225 
	C1381.855957,348.753021 1381.855957,371.493805 1381.536865,394.592285 
z"/>
<path fill="#B13131" opacity="1.000000" stroke="none" 
	d="
M1468.075684,394.344666 
	C1462.911377,394.751617 1457.948242,394.751617 1452.626953,394.751617 
	C1452.626953,378.473206 1452.626953,362.123840 1452.626953,345.459412 
	C1457.722534,345.459412 1462.643066,345.459412 1468.276733,345.459412 
	C1468.276733,361.538513 1468.276733,377.738098 1468.075684,394.344666 
z"/>
<path fill="#B12F2F" opacity="1.000000" stroke="none" 
	d="
M1005.404541,349.296753 
	C1005.018494,348.002014 1005.006226,346.908508 1004.997681,345.404968 
	C1010.435852,344.994934 1015.870300,344.994934 1021.692017,344.994934 
	C1021.692017,361.735413 1021.692017,378.074249 1021.692017,394.749298 
	C1016.790222,394.749298 1011.751526,394.749298 1005.778198,394.749298 
	C1005.778198,379.613373 1005.778198,364.555695 1005.404541,349.296753 
z"/>
<path fill="#B23434" opacity="1.000000" stroke="none" 
	d="
M1452.258057,331.076477 
	C1452.339722,329.158630 1452.421265,327.705841 1452.514648,326.042755 
	C1457.774292,326.042755 1462.713501,326.042755 1468.017090,326.042755 
	C1468.017090,330.140961 1468.017090,334.186432 1468.017090,338.550293 
	C1462.904297,338.550293 1457.867432,338.550293 1452.258057,338.550293 
	C1452.258057,336.101013 1452.258057,333.821320 1452.258057,331.076477 
z"/>
<path fill="#B23232" opacity="1.000000" stroke="none" 
	d="
M1014.014771,338.858032 
	C1011.256897,338.858002 1008.973877,338.858002 1006.424622,338.858002 
	C1006.424622,334.509430 1006.424622,330.603516 1006.424622,326.255127 
	C1011.365417,326.255127 1016.385132,326.255127 1021.752075,326.255127 
	C1021.752075,330.111725 1021.752075,334.156647 1021.752075,338.858063 
	C1019.330688,338.858063 1016.910156,338.858063 1014.014771,338.858032 
z"/>
<path fill="#B43737" opacity="1.000000" stroke="none" 
	d="
M984.116089,322.041077 
	C986.525818,322.041107 988.495605,322.041107 992.176208,322.041107 
	C985.956543,328.196350 980.903870,333.727173 975.205017,338.483704 
	C973.676025,339.759888 970.177979,338.676880 966.887695,338.676880 
	C970.828918,333.367950 974.356201,328.234924 978.356323,323.501465 
	C979.335083,322.343262 981.861328,322.492767 984.116089,322.041077 
z"/>
<path fill="#B23333" opacity="1.000000" stroke="none" 
	d="
M736.653564,327.579926 
	C741.223755,321.359955 741.223755,321.359955 753.489990,322.474243 
	C747.673523,328.156769 742.665405,333.557678 737.047241,338.224091 
	C735.394409,339.596924 732.013977,338.889648 728.072632,339.264374 
	C731.305115,334.847961 733.861816,331.354828 736.653564,327.579926 
z"/>
<path fill="#FFFEFD" opacity="1.000000" stroke="none" 
	d="
M1077.925049,123.112762 
	C1083.038452,138.452988 1088.026123,153.417892 1093.134521,168.744873 
	C1078.604980,168.744873 1064.521484,168.744873 1049.405396,168.744873 
	C1056.636719,147.396286 1063.774048,126.325142 1071.345825,103.971260 
	C1073.781494,111.053795 1075.790527,116.895630 1077.925049,123.112762 
z"/>
<path fill="#FDFAFA" opacity="1.000000" stroke="none" 
	d="
M855.935547,356.530640 
	C862.610352,361.622009 864.234680,373.910126 859.331299,379.995148 
	C854.881897,385.516754 845.786438,384.488129 842.792908,378.002289 
	C840.295105,372.590668 840.506165,366.934021 842.653870,361.528381 
	C844.646179,356.513763 848.538208,355.157776 855.935547,356.530640 
z"/>
<path fill="#FDFAFA" opacity="1.000000" stroke="none" 
	d="
M1318.981201,372.597534 
	C1318.356445,374.906891 1317.977173,376.894318 1317.104126,378.634125 
	C1315.268433,382.292786 1311.968750,383.623566 1308.043945,383.506989 
	C1304.237915,383.393921 1301.415527,381.653625 1299.814575,378.120270 
	C1297.345703,372.670776 1297.446045,367.038910 1299.609497,361.675049 
	C1301.091064,358.001831 1304.076172,355.649292 1308.524414,355.681610 
	C1313.083618,355.714783 1316.377197,357.805511 1317.697876,361.912903 
	C1318.734375,365.136353 1318.611084,368.732758 1318.981201,372.597534 
z"/>
<path fill="#FDFBFB" opacity="1.000000" stroke="none" 
	d="
M978.561951,357.294403 
	C984.554871,363.867401 984.091064,371.205963 981.803894,378.568268 
	C980.518921,382.704498 977.286987,384.988678 972.724243,385.003418 
	C968.074707,385.018463 964.261902,383.135712 963.271301,378.585510 
	C962.271667,373.994415 961.683044,369.002289 962.399292,364.417847 
	C963.666016,356.309814 970.060852,353.683899 978.561951,357.294403 
z"/>
<path fill="#FDF9F9" opacity="1.000000" stroke="none" 
	d="
M1184.975098,383.238159 
	C1179.852783,377.530060 1178.483887,367.288452 1181.844971,361.089020 
	C1184.032104,357.055206 1187.411499,355.251740 1192.115601,355.562225 
	C1197.113770,355.892120 1200.020508,359.043152 1200.725586,363.210419 
	C1201.533447,367.985077 1201.621460,373.198608 1200.567627,377.895081 
	C1199.076904,384.538177 1192.424805,386.583984 1184.975098,383.238159 
z"/>
<path fill="#FDF9F9" opacity="1.000000" stroke="none" 
	d="
M724.389282,378.266541 
	C724.397644,372.551636 724.002136,367.091309 724.942871,361.871826 
	C725.776428,357.247162 729.809631,355.433655 734.417419,355.477051 
	C739.195557,355.522064 742.779663,358.138519 743.499084,362.504272 
	C744.336792,367.588501 744.269470,373.016144 743.464722,378.116455 
	C742.795593,382.356995 739.155823,384.659607 734.731079,384.981232 
	C729.840210,385.336761 726.443054,383.162201 724.389282,378.266541 
z"/>
<path fill="#FCF7F7" opacity="1.000000" stroke="none" 
	d="
M1424.816895,384.004578 
	C1421.660522,384.559143 1418.573242,385.749725 1416.076904,384.992462 
	C1414.179199,384.416779 1411.879517,381.364807 1411.879639,379.414612 
	C1411.879639,377.500458 1414.238403,374.427094 1416.124268,373.908905 
	C1420.287354,372.765167 1424.804077,372.908569 1429.521729,372.496704 
	C1430.083496,377.568359 1428.635254,381.078705 1424.816895,384.004578 
z"/>
</svg>